<svg id="visual" viewBox="0 0 400 680" width="400" height="680" xmlns="http://www.w3.org/2000/svg" xmlns:xlink="http://www.w3.org/1999/xlink" version="1.1"><rect x="0" y="0" width="400" height="680" fill="#002233"></rect><path d="M0 328L5.2 341.8C10.3 355.7 20.7 383.3 31 382.2C41.3 381 51.7 351 61.8 324.2C72 297.3 82 273.7 92.2 259.5C102.3 245.3 112.7 240.7 123 234C133.3 227.3 143.7 218.7 154 214.7C164.3 210.7 174.7 211.3 184.8 210.5C195 209.7 205 207.3 215.2 223.5C225.3 239.7 235.7 274.3 246 298.5C256.3 322.7 266.7 336.3 277 316C287.3 295.7 297.7 241.3 307.8 219C318 196.7 328 206.3 338.2 217.5C348.3 228.7 358.7 241.3 369 251C379.3 260.7 389.7 267.3 394.8 270.7L400 274L400 0L394.8 0C389.7 0 379.3 0 369 0C358.7 0 348.3 0 338.2 0C328 0 318 0 307.8 0C297.7 0 287.3 0 277 0C266.7 0 256.3 0 246 0C235.7 0 225.3 0 215.2 0C205 0 195 0 184.8 0C174.7 0 164.3 0 154 0C143.7 0 133.3 0 123 0C112.7 0 102.3 0 92.2 0C82 0 72 0 61.8 0C51.7 0 41.3 0 31 0C20.7 0 10.3 0 5.2 0L0 0Z" fill="#0066FF" stroke-linecap="round" stroke-linejoin="miter"></path></svg>