<svg id="visual" viewBox="0 0 400 40" width="400" height="40" xmlns="http://www.w3.org/2000/svg" xmlns:xlink="http://www.w3.org/1999/xlink" version="1.1"><rect x="0" y="0" width="400" height="40" fill="#002233"></rect><path d="M0 16L11.2 14.3C22.3 12.7 44.7 9.3 66.8 8C89 6.7 111 7.3 133.2 9.8C155.3 12.3 177.7 16.7 200 20.8C222.3 25 244.7 29 266.8 29.5C289 30 311 27 333.2 24.7C355.3 22.3 377.7 20.7 388.8 19.8L400 19L400 0L388.8 0C377.7 0 355.3 0 333.2 0C311 0 289 0 266.8 0C244.7 0 222.3 0 200 0C177.7 0 155.3 0 133.2 0C111 0 89 0 66.8 0C44.7 0 22.3 0 11.2 0L0 0Z" fill="#0066FF" stroke-linecap="round" stroke-linejoin="miter"></path></svg>