<svg id="visual" viewBox="0 0 1200 200" width="1200" height="200" xmlns="http://www.w3.org/2000/svg" xmlns:xlink="http://www.w3.org/1999/xlink" version="1.1"><rect x="0" y="0" width="1200" height="200" fill="#002233"></rect><path d="M0 41L20 50.8C40 60.7 80 80.3 120 81.3C160 82.3 200 64.7 240 60.2C280 55.7 320 64.3 360 67C400 69.7 440 66.3 480 71.5C520 76.7 560 90.3 600 94.7C640 99 680 94 720 86.3C760 78.7 800 68.3 840 64.2C880 60 920 62 960 68C1000 74 1040 84 1080 78.8C1120 73.7 1160 53.3 1180 43.2L1200 33L1200 0L1180 0C1160 0 1120 0 1080 0C1040 0 1000 0 960 0C920 0 880 0 840 0C800 0 760 0 720 0C680 0 640 0 600 0C560 0 520 0 480 0C440 0 400 0 360 0C320 0 280 0 240 0C200 0 160 0 120 0C80 0 40 0 20 0L0 0Z" fill="#0066FF" stroke-linecap="round" stroke-linejoin="miter"></path></svg>