<svg id="visual" viewBox="0 0 1200 100" width="1200" height="100" xmlns="http://www.w3.org/2000/svg" xmlns:xlink="http://www.w3.org/1999/xlink" version="1.1"><rect x="0" y="0" width="1200" height="100" fill="#002233"></rect><path d="M0 19L16.7 19.8C33.3 20.7 66.7 22.3 100 28.7C133.3 35 166.7 46 200 46.8C233.3 47.7 266.7 38.3 300 32.7C333.3 27 366.7 25 400 24.8C433.3 24.7 466.7 26.3 500 31.7C533.3 37 566.7 46 600 49.7C633.3 53.3 666.7 51.7 700 50.5C733.3 49.3 766.7 48.7 800 41.7C833.3 34.7 866.7 21.3 900 24.5C933.3 27.7 966.7 47.3 1000 54.2C1033.3 61 1066.7 55 1100 53.7C1133.3 52.3 1166.7 55.7 1183.3 57.3L1200 59L1200 0L1183.3 0C1166.7 0 1133.3 0 1100 0C1066.7 0 1033.3 0 1000 0C966.7 0 933.3 0 900 0C866.7 0 833.3 0 800 0C766.7 0 733.3 0 700 0C666.7 0 633.3 0 600 0C566.7 0 533.3 0 500 0C466.7 0 433.3 0 400 0C366.7 0 333.3 0 300 0C266.7 0 233.3 0 200 0C166.7 0 133.3 0 100 0C66.7 0 33.3 0 16.7 0L0 0Z" fill="#0066FF" stroke-linecap="round" stroke-linejoin="miter"></path></svg>